<?xml version="1.0" encoding="UTF-8"?>
<svg id="Livello_1" xmlns="http://www.w3.org/2000/svg" version="1.1" viewBox="0 0 270 34">
  <!-- Generator: Adobe Illustrator 30.1.0, SVG Export Plug-In . SVG Version: 2.1.1 Build 136)  -->
  <defs>
    <style>
      .st0 {
        fill: #fff;
      }
    </style>
  </defs>
  <path class="st0" d="M6.99,11.06h5.02c1.96,0,3.74.8,5.03,2.09,1.29,1.29,2.09,3.07,2.09,5.03s-.8,3.74-2.09,5.03c-1.29,1.29-3.07,2.09-5.03,2.09h-2.33c-1.96,0-3.74-.8-5.03-2.09-1.29-1.29-2.09-3.07-2.09-5.03,0-.64.09-1.26.25-1.87h3.81c-.17.28-.3.58-.39.9-.08.3-.13.63-.13.97,0,.98.4,1.88,1.05,2.53.65.65,1.54,1.05,2.53,1.05h2.33c.98,0,1.88-.4,2.53-1.05.65-.65,1.05-1.54,1.05-2.53s-.4-1.88-1.05-2.53c-.65-.65-1.54-1.05-2.53-1.05h-6.28l1.27-3.54h0ZM18.36,23.19c.49.81.78,1.75.78,2.76,0,1.46-.6,2.79-1.56,3.76-.96.96-2.29,1.56-3.76,1.56H5.56v-3.54h8.25c.49,0,.93-.2,1.25-.52.32-.32.52-.77.52-1.25,0-.17-.02-.33-.07-.49.81-.39,1.55-.92,2.2-1.57.23-.23.44-.46.63-.71h0Z"/>
  <path class="st0" d="M30.29,11.06c1.96,0,3.74.8,5.03,2.09s2.09,3.07,2.09,5.03-.8,3.74-2.09,5.03c-1.29,1.29-3.07,2.09-5.03,2.09h-5.13v5.96h-3.54V11.06h8.67ZM30.29,14.6h-5.13v7.16h5.13c.98,0,1.88-.4,2.53-1.05.65-.65,1.05-1.54,1.05-2.53s-.4-1.88-1.05-2.53-1.54-1.05-2.53-1.05h0Z"/>
  <path class="st0" d="M43.32,11.06h5.02c1.96,0,3.74.8,5.03,2.09,1.29,1.29,2.09,3.07,2.09,5.03s-.8,3.74-2.09,5.03-3.07,2.09-5.03,2.09h-2.33c-1.96,0-3.74-.8-5.03-2.09-1.29-1.29-2.09-3.07-2.09-5.03,0-.64.09-1.26.25-1.87h3.81c-.17.28-.3.58-.39.9-.08.3-.13.63-.13.97,0,.98.4,1.88,1.05,2.53s1.55,1.05,2.53,1.05h2.33c.98,0,1.88-.4,2.53-1.05.65-.65,1.05-1.54,1.05-2.53s-.4-1.88-1.05-2.53c-.65-.65-1.54-1.05-2.53-1.05h-6.28l1.27-3.54h0ZM54.68,23.19c.49.81.78,1.75.78,2.76,0,1.46-.6,2.79-1.56,3.76-.96.96-2.29,1.56-3.76,1.56h-8.25v-3.54h8.25c.49,0,.93-.2,1.25-.52.32-.32.52-.77.52-1.25,0-.17-.02-.33-.07-.49.81-.39,1.55-.92,2.2-1.57.23-.23.44-.46.63-.71h0Z"/>
  <path class="st0" d="M57.91,11.06h3.54v.97c1.05-.62,2.28-.97,3.58-.97h.69c1.18,0,2.3.29,3.28.81-.15.43-1.19,3.42-1.19,3.42-.59-.43-1.32-.68-2.1-.68h-.69c-.98,0-1.88.4-2.53,1.05-.65.65-1.05,1.54-1.05,2.51v7.14h-3.54v-14.25Z"/>
  <path class="st0" d="M81.04,14.6h-4.35c-.98,0-1.88.4-2.53,1.05-.65.65-1.05,1.54-1.05,2.53s.4,1.88,1.05,2.53,1.54,1.05,2.53,1.05h2.1v3.54h-2.1c-1.96,0-3.74-.8-5.03-2.09-1.29-1.29-2.09-3.07-2.09-5.03s.8-3.74,2.09-5.03c1.29-1.29,3.07-2.09,5.03-2.09h7.89v14.25h-3.54v-10.7Z"/>
  <path class="st0" d="M96.21,11.06c1.96,0,3.74.8,5.03,2.09s2.09,3.07,2.09,5.03-.8,3.74-2.09,5.03c-1.29,1.29-3.07,2.09-5.03,2.09h-5.13v5.96h-3.54V11.06h8.67ZM96.21,14.6h-5.13v7.16h5.13c.98,0,1.88-.4,2.53-1.05.65-.65,1.05-1.54,1.05-2.53s-.4-1.88-1.05-2.53-1.55-1.05-2.53-1.05h0Z"/>
  <path class="st0" d="M112.94,11.06c1.96,0,3.74.8,5.03,2.09,1.29,1.29,2.09,3.07,2.09,5.03v7.12h-3.54v-7.12c0-.98-.4-1.88-1.05-2.53-.65-.65-1.54-1.05-2.53-1.05h-3.78v10.7h-3.54V5.87h3.54v5.19h3.78Z"/>
  <path class="st0" d="M122.7,6.71h3.54v3.12h-3.54v-3.12ZM122.7,25.31v-14.25h3.54v14.25h-3.54Z"/>
  <path class="st0" d="M144.63,20.71c-.52,1.36-1.44,2.52-2.62,3.33-1.15.8-2.54,1.26-4.03,1.26h-2.33c-1.96,0-3.74-.8-5.03-2.09-1.29-1.29-2.09-3.07-2.09-5.03s.8-3.74,2.09-5.03c1.29-1.29,3.07-2.09,5.03-2.09h2.33c1.49,0,2.88.47,4.03,1.26,1.18.82,2.11,1.98,2.62,3.34l-3.31,1.26c-.26-.69-.73-1.28-1.32-1.69-.57-.4-1.27-.63-2.03-.63h-2.33c-.98,0-1.88.4-2.53,1.05-.65.65-1.05,1.54-1.05,2.53s.4,1.88,1.05,2.53c.65.65,1.54,1.05,2.53,1.05h2.33c.75,0,1.45-.23,2.03-.63.59-.41,1.06-1,1.32-1.69l3.31,1.26Z"/>
  <path class="st0" d="M158.38,5.87h3.54v19.43h-8.67c-1.96,0-3.74-.8-5.03-2.09-1.29-1.29-2.09-3.07-2.09-5.03s.8-3.74,2.09-5.03c1.29-1.29,3.07-2.09,5.03-2.09h5.13v-5.19ZM158.38,14.6h-5.13c-.98,0-1.88.4-2.53,1.05-.65.65-1.05,1.54-1.05,2.53s.4,1.88,1.05,2.53c.65.65,1.54,1.05,2.53,1.05h5.13v-7.16Z"/>
  <path class="st0" d="M177.82,25.31h-6.49c-1.96,0-3.74-.8-5.03-2.09-1.29-1.29-2.09-3.07-2.09-5.03s.8-3.74,2.09-5.03c1.29-1.29,3.07-2.09,5.03-2.09h2.33c1.49,0,2.88.47,4.03,1.26,1.18.82,2.11,1.98,2.62,3.34l-1.37,3.1-.33.75h-8.11v-2.66h5.42l.45-1.01c-.2-.23-.43-.44-.68-.62-.57-.4-1.27-.63-2.03-.63h-2.33c-.98,0-1.88.4-2.53,1.05s-1.05,1.54-1.05,2.53.4,1.88,1.05,2.53,1.54,1.05,2.53,1.05h5.25l1.24,3.54h0Z"/>
  <path class="st0" d="M186.21,16.05h4.37v.02c1.14.09,2.16.58,2.93,1.33.87.84,1.4,2,1.4,3.28s-.54,2.44-1.4,3.28c-.85.83-2.02,1.34-3.3,1.34h-6.89v-3.54h6.89c.33,0,.63-.13.84-.33.2-.19.32-.46.32-.75s-.12-.56-.32-.75c-.21-.21-.51-.33-.84-.33h-4.37c-1.18,0-2.26-.47-3.04-1.24-.8-.78-1.29-1.85-1.29-3.03s.5-2.25,1.29-3.03c.78-.76,1.86-1.24,3.04-1.24h6.49v3.54h-6.49c-.23,0-.43.09-.58.23-.13.13-.21.3-.21.5s.08.37.21.5c.14.14.35.23.58.23h.37Z"/>
  <path class="st0" d="M197.05,6.71h3.54v3.12h-3.54v-3.12ZM197.05,25.31v-14.25h3.54v14.25h-3.54Z"/>
  <path class="st0" d="M207.18,11.06h5.02c1.96,0,3.74.8,5.03,2.09,1.29,1.29,2.09,3.07,2.09,5.03s-.8,3.74-2.09,5.03c-1.29,1.29-3.07,2.09-5.03,2.09h-2.33c-1.96,0-3.74-.8-5.03-2.09s-2.09-3.07-2.09-5.03c0-.64.09-1.26.25-1.87h3.81c-.17.28-.3.58-.39.9-.08.3-.13.63-.13.97,0,.98.4,1.88,1.05,2.53s1.54,1.05,2.53,1.05h2.33c.98,0,1.88-.4,2.53-1.05s1.05-1.54,1.05-2.53-.4-1.88-1.05-2.53c-.65-.65-1.54-1.05-2.53-1.05h-6.29l1.27-3.54h0ZM218.54,23.19c.49.81.78,1.75.78,2.76,0,1.46-.6,2.79-1.56,3.76-.96.96-2.29,1.56-3.76,1.56h-8.25v-3.54h8.25c.49,0,.93-.2,1.25-.52.32-.32.52-.77.52-1.25,0-.17-.02-.33-.07-.49.81-.39,1.55-.92,2.2-1.57.23-.23.44-.46.63-.71h0Z"/>
  <path class="st0" d="M221.8,11.06h2.79l.75.97c1.05-.62,2.28-.97,3.58-.97h.69c1.96,0,3.74.8,5.03,2.09,1.29,1.29,2.09,3.07,2.09,5.03v7.12h-3.54v-7.12c0-.98-.4-1.88-1.05-2.53-.65-.65-1.54-1.05-2.53-1.05h-.69c-.98,0-1.88.4-2.53,1.05-.65.65-1.05,1.54-1.05,2.51v7.14h-3.54v-14.25Z"/>
  <path class="st0" d="M252.32,25.31h-6.49c-1.96,0-3.74-.8-5.03-2.09s-2.09-3.07-2.09-5.03.8-3.74,2.09-5.03c1.29-1.29,3.07-2.09,5.03-2.09h2.33c1.49,0,2.88.47,4.03,1.26,1.18.82,2.11,1.98,2.62,3.34l-1.37,3.1-.33.75h-8.11v-2.66h5.41l.45-1.01c-.2-.23-.43-.44-.68-.62-.57-.4-1.27-.63-2.03-.63h-2.33c-.98,0-1.88.4-2.53,1.05s-1.05,1.54-1.05,2.53.4,1.88,1.05,2.53,1.54,1.05,2.53,1.05h5.25l1.24,3.54h0Z"/>
  <path class="st0" d="M256.76,11.06h3.54v.97c1.05-.62,2.28-.97,3.58-.97h.69c1.18,0,2.3.29,3.29.81-.15.43-1.19,3.42-1.19,3.42-.59-.43-1.32-.68-2.1-.68h-.69c-.98,0-1.88.4-2.53,1.05-.65.65-1.05,1.54-1.05,2.51v7.14h-3.54v-14.25Z"/>
</svg>